<svg xmlns="http://www.w3.org/2000/svg"
shape-rendering="geometricPrecision"
width="4000" height="4000" viewBox="320 305 370 400">
  <metadata>null</metadata>

<path d="
M 340.395 568.565
C 340.44 568.371 340.486 568.176 340.531 567.981
C 348.398 567.908 356.246 568.145 364.117 567.689
C 400.28 565.592 439.535 561.75 470.635 584.435
C 475.069 587.669 479.08 591.37 482.67 595.524
C 486.994 600.525 490.711 606.185 493.335 612.265
C 496.667 619.983 498.942 628.042 499.709 636.433
C 500.721 647.51 498.798 657.881 495.791 668.468
C 495.143 668.376 494.581 667.73 494.109 667.314
C 492.673 666.048 491.275 664.729 489.872 663.427
C 484.998 658.905 480.125 654.392 475.142 649.99
C 459.456 636.13 442.171 623.643 424.015 613.218
C 418.101 609.822 412.079 606.729 406.031 603.626
C 404.639 602.912 403.254 602.149 401.801 601.569
C 401.57 601.477 400.44 600.889 400.231 601.018
C 399.994 601.164 400.611 601.424 400.804 601.625
C 401.409 602.254 402.321 602.787 403.074 603.239
C 404.896 604.333 406.584 605.607 408.339 606.806
C 413.767 610.516 419.224 614.171 424.299 618.368
C 442.349 633.292 458.632 649.93 473.45 668.049
C 476.897 672.263 480.047 676.705 483.206 681.136
C 483.761 681.914 486.397 684.829 485.861 685.732
C 477.416 689.606 469.165 692.364 459.887 693.483
C 453.136 694.297 446.021 694.216 439.296 693.227
C 433.337 692.35 427.413 690.863 421.754 688.798
C 385.991 675.745 363.369 642.274 350.454 608.071
C 347.518 600.296 345.129 592.375 343.162 584.303
C 341.93 579.243 340.63 573.782 340.395 568.565 Z"
opacity="1" fill="rgb(146,136,66)" fill-rule="evenodd" />
<path d="
M 418.451 407.604
C 419.558 400.846 420.47 394.234 422.668 387.704
C 429.943 366.099 445.531 347.342 465.431 336.195
C 492.609 320.971 527.201 320.164 554.947 334.423
C 568.93 341.608 580.932 352.395 589.782 365.35
C 594.032 371.572 597.735 378.499 600.185 385.64
C 602.995 393.832 605.128 402.342 605.62 411.013
C 606.763 431.141 600.011 450.167 591.412 468.037
C 581.969 487.661 570.718 506.31 558.765 524.5
C 547.47 541.689 536.074 558.848 523.892 575.425
C 521.065 579.272 518.113 583.039 515.358 586.936
C 514.801 587.724 513.089 590.872 512.083 590.875
C 510.679 589.953 509.812 588.481 508.796 587.18
C 506.884 584.734 505.079 582.217 503.223 579.731
C 495.629 569.556 488.371 559.163 481.143 548.725
C 462.923 522.413 445.19 495.298 431.668 466.222
C 423.091 447.778 416.371 428.26 418.451 407.604 Z
M 454.954 413.623
C 454.403 420.298 455.398 427.222 457.259 433.627
C 465.936 463.486 498.596 480.923 528.271 472.088
C 535.39 469.968 542.182 466.22 547.893 461.485
C 552.896 457.338 557.399 452.341 560.706 446.722
C 565.184 439.112 567.714 430.736 568.555 421.973
C 569.108 416.212 568.52 409.947 567.196 404.33
C 565.65 397.769 562.947 391.364 559.219 385.731
C 544.402 363.341 515.128 354.933 490.373 364.529
C 484.853 366.669 479.436 369.743 475.02 373.71
C 470.427 377.837 465.951 382.387 462.909 387.828
C 458.384 395.92 455.718 404.373 454.954 413.623 Z"
opacity="1" fill="rgb(136,59,37)" fill-rule="evenodd" />
<path d="
M 525.958 638.611
C 527.002 629.674 528.361 621.156 532.041 612.828
C 534.582 607.076 537.786 601.795 541.643 596.835
C 563.648 568.531 603.114 564.972 636.18 566.384
C 641.998 566.633 647.814 566.972 653.622 567.39
C 660.575 567.89 667.533 568.218 674.507 568.235
C 677.815 568.243 682.034 567.464 685.241 568.215
C 684.904 573.446 683.696 578.739 682.473 583.837
C 680.594 591.67 678.401 599.552 675.459 607.057
C 664.093 636.053 647.367 664.754 620.143 681.498
C 613.263 685.73 605.788 689.212 598.125 691.756
C 591.574 693.93 584.707 695.12 577.825 695.545
C 568.104 696.147 557.813 694.572 548.708 691.126
C 545.274 689.826 542.023 687.85 538.613 686.627
C 539.154 684.369 541.357 682.072 542.672 680.165
C 546.007 675.329 549.629 670.614 553.404 666.114
C 567.896 648.838 583.87 631.85 601.851 618.125
C 606.964 614.222 612.018 610.176 617.409 606.656
C 619.046 605.587 620.674 604.503 622.28 603.393
C 623.216 602.746 624.364 602.338 624.97 601.32
C 622.533 601.606 619.971 603.306 617.812 604.398
C 613 606.831 608.249 609.371 603.565 612.041
C 584.897 622.683 567.678 635.064 551.219 648.859
C 545.573 653.592 540.232 658.666 534.862 663.705
C 533.679 664.814 532.5 665.953 531.278 667.019
C 530.89 667.357 530.149 668.089 529.685 667.764
C 526.137 658.973 525.316 647.996 525.958 638.611 Z"
opacity="1" fill="rgb(209,124,55)" fill-rule="evenodd" />

</svg>